<svg width="189" height="46" viewBox="0 0 189 46" fill="none" xmlns="http://www.w3.org/2000/svg">
<path d="M17.2375 34.3L6.12495 20.6938V34.3H-4.8841e-05V3.76251H6.12495V17.4563L17.2375 3.76251H24.6312L12.0312 18.9L24.9812 34.3H17.2375ZM32.1162 7.17501C31.037 7.17501 30.1329 6.83959 29.4037 6.16876C28.7037 5.46875 28.3537 4.60834 28.3537 3.5875C28.3537 2.56667 28.7037 1.72084 29.4037 1.05C30.1329 0.350004 31.037 4.33183e-06 32.1162 4.33183e-06C33.1954 4.33183e-06 34.085 0.350004 34.785 1.05C35.5141 1.72084 35.8787 2.56667 35.8787 3.5875C35.8787 4.60834 35.5141 5.46875 34.785 6.16876C34.085 6.83959 33.1954 7.17501 32.1162 7.17501ZM35.135 10.0625V34.3H29.01V10.0625H35.135ZM47.3115 13.6063C48.099 12.4396 49.1781 11.4917 50.549 10.7625C51.949 10.0333 53.5386 9.66875 55.3177 9.66875C57.3886 9.66875 59.2552 10.1792 60.9177 11.2C62.6094 12.2208 63.9365 13.6792 64.899 15.575C65.8906 17.4417 66.3865 19.6146 66.3865 22.0938C66.3865 24.5729 65.8906 26.775 64.899 28.7C63.9365 30.5958 62.6094 32.0688 60.9177 33.1188C59.2552 34.1688 57.3886 34.6938 55.3177 34.6938C53.5094 34.6938 51.9198 34.3438 50.549 33.6438C49.2073 32.9146 48.1281 31.9813 47.3115 30.8438V34.3H41.1865V1.92501H47.3115V13.6063ZM60.1302 22.0938C60.1302 20.6354 59.824 19.3813 59.2115 18.3313C58.6281 17.2521 57.8406 16.4354 56.849 15.8813C55.8865 15.3271 54.8365 15.05 53.699 15.05C52.5906 15.05 51.5406 15.3417 50.549 15.925C49.5865 16.4792 48.799 17.2958 48.1865 18.375C47.6031 19.4542 47.3115 20.7229 47.3115 22.1813C47.3115 23.6396 47.6031 24.9083 48.1865 25.9875C48.799 27.0667 49.5865 27.8979 50.549 28.4813C51.5406 29.0354 52.5906 29.3125 53.699 29.3125C54.8365 29.3125 55.8865 29.0208 56.849 28.4375C57.8406 27.8542 58.6281 27.0229 59.2115 25.9438C59.824 24.8646 60.1302 23.5813 60.1302 22.0938ZM93.7186 10.0625V34.3H87.5498V31.2375C86.7623 32.2875 85.7269 33.1188 84.4436 33.7313C83.1894 34.3146 81.8186 34.6063 80.3311 34.6063C78.4353 34.6063 76.7582 34.2125 75.2998 33.425C73.8415 32.6083 72.6894 31.4271 71.8436 29.8813C71.0269 28.3063 70.6186 26.4396 70.6186 24.2813V10.0625H76.7436V23.4063C76.7436 25.3313 77.2248 26.8188 78.1873 27.8688C79.1498 28.8896 80.4623 29.4 82.1248 29.4C83.8165 29.4 85.1436 28.8896 86.1061 27.8688C87.0686 26.8188 87.5498 25.3313 87.5498 23.4063V10.0625H93.7186ZM106.893 15.0938V26.8188C106.893 27.6354 107.083 28.2333 107.462 28.6125C107.87 28.9625 108.541 29.1375 109.474 29.1375H112.318V34.3H108.468C103.306 34.3 100.724 31.7917 100.724 26.775V15.0938H97.8369V10.0625H100.724V4.06875H106.893V10.0625H112.318V15.0938H106.893ZM125.999 34.6938C124.015 34.6938 122.236 34.3438 120.661 33.6438C119.086 32.9146 117.832 31.9375 116.899 30.7125C115.994 29.4875 115.499 28.1313 115.411 26.6438H121.58C121.696 27.5771 122.149 28.35 122.936 28.9625C123.753 29.575 124.759 29.8813 125.955 29.8813C127.121 29.8813 128.026 29.6479 128.667 29.1813C129.338 28.7146 129.674 28.1167 129.674 27.3875C129.674 26.6 129.265 26.0167 128.449 25.6375C127.661 25.2292 126.392 24.7917 124.642 24.325C122.834 23.8875 121.346 23.4354 120.18 22.9688C119.042 22.5021 118.051 21.7875 117.205 20.825C116.388 19.8625 115.98 18.5646 115.98 16.9313C115.98 15.5896 116.359 14.3646 117.117 13.2563C117.905 12.1479 119.013 11.2729 120.442 10.6313C121.901 9.98959 123.607 9.66875 125.561 9.66875C128.449 9.66875 130.753 10.3979 132.474 11.8563C134.194 13.2854 135.142 15.225 135.317 17.675H129.455C129.367 16.7125 128.959 15.9542 128.23 15.4C127.53 14.8167 126.582 14.525 125.386 14.525C124.278 14.525 123.417 14.7292 122.805 15.1375C122.221 15.5458 121.93 16.1146 121.93 16.8438C121.93 17.6604 122.338 18.2875 123.155 18.725C123.971 19.1333 125.24 19.5563 126.961 19.9938C128.711 20.4313 130.155 20.8833 131.292 21.35C132.43 21.8167 133.407 22.5458 134.224 23.5375C135.069 24.5 135.507 25.7833 135.536 27.3875C135.536 28.7875 135.142 30.0417 134.355 31.15C133.596 32.2583 132.488 33.1333 131.03 33.775C129.601 34.3875 127.924 34.6938 125.999 34.6938ZM163.445 10.0625V34.3H157.276V31.2375C156.489 32.2875 155.453 33.1188 154.17 33.7313C152.916 34.3146 151.545 34.6063 150.058 34.6063C148.162 34.6063 146.485 34.2125 145.026 33.425C143.568 32.6083 142.416 31.4271 141.57 29.8813C140.753 28.3063 140.345 26.4396 140.345 24.2813V10.0625H146.47V23.4063C146.47 25.3313 146.951 26.8188 147.914 27.8688C148.876 28.8896 150.189 29.4 151.851 29.4C153.543 29.4 154.87 28.8896 155.833 27.8688C156.795 26.8188 157.276 25.3313 157.276 23.4063V10.0625H163.445ZM172.595 7.17501C171.486 7.17501 170.568 6.83959 169.838 6.16876C169.138 5.46875 168.788 4.60834 168.788 3.5875C168.788 2.56667 169.138 1.72084 169.838 1.05C170.568 0.350004 171.486 4.33183e-06 172.595 4.33183e-06C173.674 4.33183e-06 174.563 0.350004 175.263 1.05C175.963 1.72084 176.313 2.56667 176.313 3.5875C176.313 4.60834 175.963 5.46875 175.263 6.16876C174.563 6.83959 173.674 7.17501 172.595 7.17501ZM175.613 38.2813C175.613 40.9646 174.943 42.8896 173.601 44.0563C172.288 45.2521 170.393 45.85 167.913 45.85H165.201V40.6438H166.951C167.884 40.6438 168.541 40.4542 168.92 40.075C169.299 39.725 169.488 39.1417 169.488 38.325V10.0625H175.613V38.2813ZM184.771 7.17501C183.692 7.17501 182.788 6.83959 182.059 6.16876C181.359 5.46875 181.009 4.60834 181.009 3.5875C181.009 2.56667 181.359 1.72084 182.059 1.05C182.788 0.350004 183.692 4.33183e-06 184.771 4.33183e-06C185.85 4.33183e-06 186.74 0.350004 187.44 1.05C188.169 1.72084 188.534 2.56667 188.534 3.5875C188.534 4.60834 188.169 5.46875 187.44 6.16876C186.74 6.83959 185.85 7.17501 184.771 7.17501ZM187.79 10.0625V34.3H181.665V10.0625H187.79Z" fill="url(#paint0_radial_2514_1552)"/>
<defs>
<radialGradient id="paint0_radial_2514_1552" cx="0" cy="0" r="1" gradientTransform="matrix(-121.25 23.2763 -25.1842 -112.064 166.731 16.8)" gradientUnits="userSpaceOnUse">
<stop stop-color="#FF2C78"/>
<stop offset="1" stop-color="#DCA4FF"/>
</radialGradient>
</defs>
</svg>
